<svg xmlns="http://www.w3.org/2000/svg" viewBox="0 0 32 32">
  <style>
    :root {
      --accent: #8FBC8F;
      --bg: #1C1A17;
    }
    @media (prefers-color-scheme: light) {
      :root {
        --accent: #3A5A40;
        --bg: #FDFBF7;
      }
    }
    .bg { fill: var(--bg); transition: fill 0.3s ease; }
    .accent { fill: var(--accent); transition: fill 0.3s ease; }
  </style>
  <rect width="32" height="32" rx="8" class="bg" />
  <path d="M16 6C11 6 8 8.5 8 11.5c0 2.5 1.8 3.8 4.5 4.5l3.5.8c2 .5 2.5 1 2.5 1.8c0 .8-.8 1.4-2.5 1.4c-2.2 0-3.5-.8-4-1.8l-3 1.5c1 2.2 3.2 3.3 7 3.3c5 0 8.5-2.5 8.5-5.8c0-3-2-4-5-4.8l-3-.8c-1.8-.5-2.5-1-2.5-1.7c0-.8.8-1.2 2.3-1.2c2 0 3.2.7 3.7 1.5l2.8-1.8C23 7.5 20.5 6 16 6z" class="accent" />
</svg>
